<?xml version="1.0" standalone="no"?>
<!DOCTYPE svg PUBLIC "-//W3C//DTD SVG 20010904//EN"
 "http://www.w3.org/TR/2001/REC-SVG-20010904/DTD/svg10.dtd">
<svg version="1.0" xmlns="http://www.w3.org/2000/svg"
 width="512.000000pt" height="512.000000pt" viewBox="0 0 512.000000 512.000000"
 preserveAspectRatio="xMidYMid meet">

<g transform="translate(0.000000,512.000000) scale(0.100000,-0.100000)"
fill="#000000" stroke="none">
<path d="M2340 4936 c-104 -16 -228 -48 -315 -81 -217 -81 -455 -243 -594
-403 l-53 -61 -40 59 c-51 77 -106 124 -193 166 -190 91 -430 47 -591 -107
-66 -65 -103 -124 -128 -209 -13 -43 -222 -1406 -251 -1635 -4 -27 -2 -78 4
-112 7 -34 92 -272 190 -530 198 -522 261 -731 221 -745 -15 -5 -80 -393 -80
-479 0 -221 145 -407 362 -465 67 -17 810 -20 904 -3 121 22 245 104 313 206
63 94 70 130 107 533 47 502 47 504 -43 738 -39 100 -69 182 -66 182 2 0 38
-9 81 -20 120 -31 267 -50 387 -50 120 0 267 19 387 50 43 11 79 20 81 20 3 0
-28 -82 -67 -182 l-71 -183 0 -180 c-1 -183 27 -625 45 -725 35 -191 208 -356
408 -390 44 -7 204 -10 472 -8 372 3 409 5 460 23 126 45 243 158 290 282 40
104 38 183 -10 458 l-43 242 28 114 c16 66 101 306 206 582 98 258 184 497
190 530 6 34 8 85 5 112 -30 230 -239 1592 -252 1635 -47 159 -168 278 -340
334 -141 46 -260 40 -384 -21 -80 -39 -170 -120 -204 -184 l-19 -36 -106 106
c-220 220 -474 358 -776 423 -118 25 -395 33 -515 14z m410 -322 c602 -103
1026 -629 997 -1234 -3 -63 -13 -150 -23 -192 l-17 -77 -56 -17 c-74 -21 -134
-57 -199 -118 -80 -76 -88 -92 -244 -503 -17 -47 -26 -56 -81 -87 -86 -48
-195 -89 -307 -117 -134 -33 -393 -34 -520 -2 -116 29 -239 75 -315 118 -57
32 -66 41 -83 88 -156 411 -164 427 -244 503 -65 61 -125 97 -199 119 l-56 16
-19 82 c-23 102 -26 356 -5 462 127 641 738 1068 1371 959z m-1722 -296 c38
-23 72 -84 72 -130 0 -18 -43 -323 -96 -678 -70 -469 -102 -661 -119 -705 -30
-79 -39 -166 -25 -244 15 -82 314 -868 342 -898 30 -32 100 -57 140 -49 76 14
138 84 138 156 0 17 -67 207 -149 423 -82 216 -152 402 -155 414 -10 30 11
103 37 131 66 71 184 67 239 -8 9 -14 117 -286 239 -605 l220 -580 -6 -124
c-3 -69 -8 -128 -11 -133 -3 -4 -223 -8 -490 -8 l-484 0 0 59 c0 103 -53 273
-239 762 -99 261 -182 485 -186 499 -9 41 230 1605 252 1642 24 41 60 66 124
89 61 21 107 17 157 -13z m3245 0 c55 -24 92 -64 107 -116 5 -20 62 -385 125
-810 90 -601 114 -780 107 -805 -6 -17 -89 -241 -187 -497 -181 -475 -235
-649 -235 -752 l0 -58 -484 0 c-267 0 -487 4 -490 8 -3 5 -8 64 -11 133 l-6
124 220 580 c122 319 230 591 239 605 39 54 132 76 190 46 58 -30 101 -109 88
-162 -4 -14 -74 -203 -156 -419 -83 -217 -150 -408 -150 -425 0 -72 62 -142
138 -156 40 -8 110 17 140 49 28 30 327 816 342 898 14 78 5 165 -25 244 -17
44 -49 237 -119 705 -53 355 -96 660 -96 678 0 44 32 105 67 127 58 38 110 39
196 3z"/>
<path d="M2504 4302 c-54 -26 -84 -76 -91 -152 l-6 -59 -58 -36 c-169 -104
-243 -323 -164 -492 46 -99 119 -161 318 -267 173 -93 195 -121 141 -185 -21
-25 -33 -31 -66 -31 -54 0 -72 12 -104 70 -48 89 -133 120 -213 78 -91 -47
-114 -130 -65 -234 32 -67 111 -152 171 -182 39 -20 40 -23 45 -80 10 -107 59
-162 152 -170 41 -3 58 1 86 20 56 38 80 82 80 147 l0 56 47 25 c68 36 137
109 175 187 31 64 33 74 33 173 0 94 -3 110 -27 155 -51 98 -122 155 -321 261
-126 67 -167 97 -167 121 0 27 29 69 55 81 64 29 109 7 160 -79 78 -131 275
-89 292 62 10 89 -93 242 -202 300 l-45 24 0 56 c0 125 -116 202 -226 151z"/>
</g>
</svg>
