<?xml version="1.0" standalone="no"?>
<!DOCTYPE svg PUBLIC "-//W3C//DTD SVG 20010904//EN"
 "http://www.w3.org/TR/2001/REC-SVG-20010904/DTD/svg10.dtd">
<svg version="1.0" xmlns="http://www.w3.org/2000/svg"
 width="512.000000pt" height="512.000000pt" viewBox="0 0 512.000000 512.000000"
 preserveAspectRatio="xMidYMid meet">

<g transform="translate(0.000000,512.000000) scale(0.100000,-0.100000)"
fill="#000000" stroke="none">
<path d="M2080 5107 c-49 -16 -133 -102 -148 -153 -28 -94 -8 -169 63 -239 62
-62 101 -75 229 -75 l97 0 -3 -87 -3 -87 -87 -13 c-282 -40 -611 -168 -858
-333 l-105 -70 -55 55 -55 55 183 183 c102 102 183 192 183 203 3 46 -4 61
-49 103 -115 108 -277 188 -437 216 -195 34 -372 7 -552 -82 l-73 -36 -69 66
c-99 96 -107 95 -238 -36 -131 -131 -132 -139 -36 -238 l66 -69 -36 -73 c-162
-325 -118 -690 116 -971 48 -57 89 -78 127 -64 14 5 105 89 202 186 l178 177
55 -55 55 -55 -66 -98 c-524 -786 -476 -1818 119 -2555 l67 -82 -195 -390
c-107 -215 -195 -401 -195 -415 0 -14 11 -37 25 -50 24 -25 26 -25 214 -25
l191 0 255 218 255 219 117 -58 c132 -64 278 -117 425 -155 484 -122 1019 -64
1471 159 l107 54 255 -219 255 -218 191 0 c188 0 190 0 214 25 14 13 25 36 25
50 0 14 -88 201 -195 415 l-195 390 64 78 c465 563 607 1344 372 2046 -68 205
-186 437 -289 569 l-30 39 56 56 57 57 183 -183 c102 -102 192 -183 203 -183
46 -3 61 4 103 49 108 115 188 277 216 437 34 195 7 372 -82 552 l-36 73 66
69 c96 99 95 107 -36 238 -131 131 -139 132 -238 36 l-69 -66 -73 36 c-325
162 -690 118 -971 -116 -57 -48 -78 -89 -64 -127 5 -14 89 -105 186 -202 l177
-178 -55 -55 -55 -55 -105 71 c-242 162 -576 292 -858 332 l-87 13 -3 87 -3
87 97 0 c128 0 167 13 229 75 98 97 101 222 8 325 -72 81 -69 80 -577 79 -291
-1 -453 -5 -476 -12z m914 -158 c55 -26 55 -112 0 -138 -17 -8 -151 -11 -434
-11 -283 0 -417 3 -434 11 -35 16 -52 61 -37 98 7 16 22 33 34 39 32 15 838
16 871 1z m-1929 -254 c72 -20 189 -75 230 -109 l30 -25 -503 -503 -503 -503
-25 30 c-35 42 -89 158 -110 235 -24 88 -24 271 0 360 33 125 92 227 186 321
115 117 236 180 392 209 71 12 229 5 303 -15z m3360 0 c33 -9 98 -35 145 -58
69 -33 102 -58 175 -132 74 -73 99 -106 132 -175 23 -47 50 -114 59 -150 24
-89 24 -272 0 -360 -21 -77 -75 -193 -110 -235 l-25 -30 -500 500 c-276 275
-501 503 -501 508 0 13 116 83 177 106 143 53 308 62 448 26z m-4162 -33 c16
-17 15 -20 -6 -40 l-24 -22 -18 20 c-17 19 -17 21 0 40 22 25 28 25 48 2z
m4642 -2 c17 -19 17 -21 0 -40 l-18 -20 -24 22 c-21 20 -22 23 -6 40 20 23 26
23 48 -2z m-2265 -100 l0 -80 -80 0 -80 0 0 80 0 80 80 0 80 0 0 -80z m85
-251 c1411 -121 2251 -1619 1618 -2884 -158 -315 -387 -573 -683 -770 -597
-397 -1370 -440 -2010 -112 -582 298 -981 863 -1071 1517 -17 123 -17 399 0
520 80 576 397 1084 874 1401 295 195 588 295 977 332 76 8 181 6 295 -4z
m-1637 -322 l42 -43 -98 -97 -98 -97 -44 45 -44 45 94 95 c52 52 97 95 100 95
3 0 25 -19 48 -43z m3092 -52 l94 -95 -44 -45 -44 -45 -98 97 -98 97 42 43
c23 24 45 43 48 43 3 0 48 -43 100 -95z m-3041 -3243 c38 -32 100 -82 140
-112 69 -51 71 -54 54 -71 -10 -9 -105 -92 -212 -183 l-194 -166 -79 0 -78 0
147 295 c82 162 149 295 151 295 2 0 34 -26 71 -58z m3064 -237 l147 -295 -78
0 -79 0 -194 166 c-107 91 -202 174 -212 183 -17 17 -14 20 70 84 48 37 111
87 138 111 28 25 52 45 55 46 3 0 71 -133 153 -295z"/>
<path d="M2309 3985 c-709 -115 -1248 -629 -1401 -1335 -19 -92 -22 -133 -22
-330 0 -197 3 -238 22 -330 147 -677 646 -1176 1322 -1322 92 -19 134 -22 330
-22 196 0 238 3 330 22 676 146 1176 646 1322 1322 19 92 22 134 22 330 0 195
-3 238 -22 327 -34 158 -76 276 -152 428 -227 456 -656 787 -1165 895 -130 28
-455 37 -586 15z m251 -385 l80 0 0 118 0 118 74 -7 c172 -17 364 -73 526
-154 89 -45 239 -142 300 -195 l34 -30 -84 -85 -85 -85 58 -57 57 -58 85 85
c50 50 88 80 93 75 210 -245 342 -548 371 -851 l7 -74 -118 0 -118 0 0 -80 0
-80 118 0 118 0 -7 -74 c-29 -303 -161 -606 -371 -851 -5 -5 -43 25 -93 75
l-85 85 -57 -58 -58 -57 85 -85 84 -85 -34 -30 c-61 -53 -211 -150 -300 -195
-162 -81 -354 -137 -526 -154 l-74 -7 0 118 0 118 -80 0 -80 0 0 -118 0 -118
-74 7 c-292 28 -571 147 -827 351 l-34 27 85 86 85 85 -58 57 -57 58 -85 -85
c-50 -50 -88 -80 -93 -75 -210 245 -342 548 -371 851 l-7 74 118 0 118 0 0 80
0 80 -118 0 -118 0 7 74 c29 303 161 606 371 851 5 5 43 -25 93 -75 l85 -85
57 58 58 57 -84 84 -84 85 33 28 c223 191 540 326 825 352 l70 6 3 -117 3
-118 79 0z"/>
<path d="M2482 3427 c-19 -6 -55 -30 -82 -54 -79 -71 -80 -79 -80 -494 0 -232
-4 -360 -10 -364 -25 -15 -63 -113 -68 -172 -12 -151 82 -284 233 -328 44 -14
74 -39 280 -244 199 -197 237 -230 279 -245 97 -32 192 -11 261 59 70 69 91
164 59 261 -15 42 -48 80 -245 279 -206 208 -230 236 -244 281 -8 28 -26 68
-40 88 l-25 37 0 351 c0 242 -4 363 -12 390 -17 59 -88 133 -145 152 -52 18
-112 19 -161 3z m129 -176 l29 -29 0 -294 0 -293 -80 0 -80 0 0 293 0 294 29
29 c16 16 39 29 51 29 12 0 35 -13 51 -29z m16 -791 c75 -33 108 -117 78 -195
-42 -111 -179 -137 -262 -49 -69 74 -46 195 47 242 54 27 82 27 137 2z m574
-673 c26 -62 -46 -134 -109 -108 -15 7 -107 91 -202 187 -160 160 -173 176
-155 186 11 6 40 33 65 59 l45 49 172 -172 c95 -95 178 -185 184 -201z"/>
</g>
</svg>
