<?xml version="1.0" standalone="no"?>
<!DOCTYPE svg PUBLIC "-//W3C//DTD SVG 20010904//EN"
 "http://www.w3.org/TR/2001/REC-SVG-20010904/DTD/svg10.dtd">
<svg version="1.0" xmlns="http://www.w3.org/2000/svg"
 width="512.000000pt" height="512.000000pt" viewBox="0 0 512.000000 512.000000"
 preserveAspectRatio="xMidYMid meet">

<g transform="translate(0.000000,512.000000) scale(0.100000,-0.100000)"
fill="#000000" stroke="none">
<path d="M2781 5110 c-122 -26 -233 -79 -314 -151 l-48 -42 52 -53 53 -53 40
33 c160 129 366 156 556 72 59 -26 96 -54 80 -60 -8 -3 -132 -47 -274 -96
-143 -50 -261 -92 -263 -94 -2 -2 122 -86 276 -187 l279 -183 7 -333 c4 -183
10 -333 14 -333 3 0 105 79 226 175 222 177 235 184 235 125 0 -71 -141 -212
-275 -274 -82 -38 -139 -48 -322 -53 l-183 -6 0 -43 0 -44 -75 0 -75 0 0 45 0
45 -220 0 -220 0 0 -40 0 -40 -75 0 -75 0 0 40 0 40 -150 0 -150 0 0 -25 c0
-24 -2 -25 -75 -25 -72 0 -75 1 -75 24 0 22 -4 23 -82 28 -88 6 -148 25 -185
60 -18 17 -20 24 -11 42 6 11 231 245 501 519 l490 499 -54 54 -54 54 -132
-132 c-72 -73 -296 -302 -498 -508 -432 -443 -430 -440 -430 -605 0 -93 2
-105 32 -162 l31 -63 -236 0 c-268 0 -334 -10 -447 -64 -38 -18 -94 -51 -123
-74 -61 -45 -156 -153 -144 -162 4 -4 31 -24 60 -45 l54 -38 43 50 c56 64 135
118 221 151 l69 27 1665 3 c1172 2 1684 0 1730 -8 191 -32 365 -193 415 -385
12 -49 15 -141 15 -541 l0 -482 -35 -26 c-66 -50 -124 -70 -205 -70 -81 0
-139 20 -205 70 l-35 26 0 132 c0 160 -11 228 -48 314 -18 39 -34 101 -40 149
-6 45 -20 100 -32 122 -129 254 -491 254 -620 0 -12 -22 -26 -77 -32 -122 -6
-48 -22 -110 -40 -149 -38 -87 -48 -154 -48 -320 l0 -138 25 0 c14 0 25 -4 25
-9 0 -13 -52 -61 -85 -79 -40 -20 -131 -20 -172 2 l-33 17 0 132 c0 150 -10
197 -51 249 -26 33 -29 44 -29 115 -1 135 -51 203 -150 203 -99 0 -149 -68
-150 -203 0 -71 -3 -82 -29 -115 -40 -50 -51 -98 -51 -218 0 -96 -1 -101 -27
-127 -40 -37 -108 -65 -183 -72 -197 -20 -302 -121 -317 -306 -4 -54 -14 -89
-35 -130 -16 -31 -32 -74 -35 -95 -15 -102 -171 -178 -310 -153 -62 11 -125
43 -160 81 l-22 23 -3 580 -3 580 -24 52 c-13 29 -29 58 -37 64 -9 7 -14 33
-14 74 0 115 -44 206 -118 244 -20 10 -66 21 -102 25 -56 5 -72 3 -116 -18
-88 -41 -134 -127 -134 -251 0 -41 -5 -67 -14 -74 -8 -6 -24 -35 -37 -64 -23
-50 -24 -63 -27 -322 -3 -261 -4 -271 -25 -293 -61 -66 -175 -99 -274 -81 -67
13 -100 28 -148 70 l-35 31 0 522 c0 414 3 532 14 573 8 30 10 55 5 58 -14 9
-131 46 -134 43 -2 -2 -11 -30 -21 -63 -15 -53 -17 -126 -21 -616 -5 -620 -1
-688 46 -782 47 -95 143 -182 224 -202 l27 -7 0 -544 0 -544 -280 0 -280 0 0
-75 0 -75 2560 0 2560 0 0 75 0 75 -300 0 -300 0 0 585 0 585 65 29 c123 56
207 173 225 315 12 93 12 953 0 1077 -24 247 -156 441 -375 550 -126 62 -176
69 -524 69 l-304 0 51 54 c55 58 111 140 136 200 9 21 16 40 16 42 0 2 -15 10
-34 18 l-33 14 16 72 16 72 38 -4 37 -4 0 76 c0 111 -23 189 -97 342 -37 76
-65 139 -62 141 3 3 440 174 597 234 6 3 12 10 12 16 0 19 -45 127 -52 127 -5
0 -148 -55 -318 -121 -171 -67 -312 -120 -314 -118 -2 2 -39 74 -82 159 -72
144 -84 161 -163 240 -93 93 -183 146 -296 176 -73 19 -234 26 -294 14z m708
-669 l151 -299 -128 -102 -127 -102 -9 221 -9 221 -178 117 c-98 65 -179 121
-179 124 0 5 299 115 322 118 4 1 74 -134 157 -298z m-2204 -2121 c26 -13 49
-34 63 -59 22 -39 22 -40 22 -647 0 -369 4 -635 10 -674 35 -217 241 -368 451
-331 87 15 158 51 215 109 85 86 123 192 124 342 0 31 8 72 19 95 34 76 122
135 203 135 95 0 202 46 271 116 94 95 116 178 117 428 0 140 1 151 22 173 27
29 68 30 95 1 20 -22 22 -36 25 -263 4 -262 7 -278 68 -355 99 -125 321 -125
420 0 42 52 58 96 66 174 l7 66 -42 0 -41 0 0 75 0 75 40 0 40 0 0 159 c0 175
9 216 59 280 16 20 53 50 83 67 45 25 64 29 128 29 64 0 83 -4 128 -29 30 -17
67 -47 83 -67 52 -66 59 -102 59 -313 0 -275 18 -357 96 -453 46 -56 106 -97
180 -122 l59 -20 3 -175 2 -176 -710 0 -710 0 0 -75 0 -75 710 0 710 0 0 -330
0 -330 -1820 0 -1820 0 0 90 0 90 245 0 245 0 0 75 0 75 -245 0 -245 0 0 373
0 373 50 13 c72 19 163 83 210 149 70 98 73 115 78 497 3 322 5 342 25 377 23
42 84 78 131 78 16 0 48 -9 71 -20z"/>
<path d="M2350 885 l0 -75 70 0 70 0 0 75 0 75 -70 0 -70 0 0 -75z"/>
<path d="M2640 885 l0 -75 75 0 75 0 0 75 0 75 -75 0 -75 0 0 -75z"/>
</g>
</svg>
