<?xml version="1.0" standalone="no"?>
<!DOCTYPE svg PUBLIC "-//W3C//DTD SVG 20010904//EN"
 "http://www.w3.org/TR/2001/REC-SVG-20010904/DTD/svg10.dtd">
<svg version="1.0" xmlns="http://www.w3.org/2000/svg"
 width="512.000000pt" height="512.000000pt" viewBox="0 0 512.000000 512.000000"
 preserveAspectRatio="xMidYMid meet">

<g transform="translate(0.000000,512.000000) scale(0.100000,-0.100000)"
fill="#000000" stroke="none">
<path d="M3504 4216 c-65 -15 -131 -46 -204 -95 l-45 -31 -685 0 -685 0 -68
45 c-103 66 -152 80 -282 80 -106 -1 -114 -2 -206 -41 -196 -82 -376 -231
-494 -408 -67 -101 -207 -380 -287 -571 -322 -769 -441 -1453 -322 -1863 83
-284 249 -436 479 -436 103 0 190 29 283 94 74 52 212 182 212 199 0 6 23 39
51 73 28 35 89 120 136 191 97 145 138 185 243 236 l75 36 856 0 855 0 77 -38
c95 -47 168 -117 228 -217 129 -218 339 -444 480 -515 191 -97 398 -62 539 93
235 255 263 754 84 1442 -87 331 -296 877 -429 1119 -167 302 -381 496 -650
588 -89 30 -164 36 -241 19z m372 -692 c73 -49 70 -170 -6 -209 -16 -8 -48
-15 -71 -15 -33 0 -47 6 -75 34 -30 30 -34 40 -34 86 0 46 4 56 34 86 29 29
41 34 80 34 27 0 58 -7 72 -16z m-291 -270 c45 -21 68 -59 68 -110 0 -78 -60
-131 -136 -121 -119 16 -144 185 -34 232 42 19 62 18 102 -1z m270 -288 c38
-16 75 -68 75 -104 0 -40 -28 -90 -59 -106 -91 -47 -191 18 -178 116 6 45 29
75 72 94 39 17 48 17 90 0z m-1695 -391 l0 -74 83 -3 82 -3 0 -140 0 -140 -82
-3 -83 -3 0 -79 0 -80 -145 0 -145 0 0 80 0 80 -80 0 -80 0 0 145 0 145 80 0
80 0 0 75 0 75 145 0 145 0 0 -75z"/>
</g>
</svg>
