<?xml version="1.0" standalone="no"?>
<!DOCTYPE svg PUBLIC "-//W3C//DTD SVG 20010904//EN"
 "http://www.w3.org/TR/2001/REC-SVG-20010904/DTD/svg10.dtd">
<svg version="1.0" xmlns="http://www.w3.org/2000/svg"
 width="512.000000pt" height="512.000000pt" viewBox="0 0 512.000000 512.000000"
 preserveAspectRatio="xMidYMid meet">

<g transform="translate(0.000000,512.000000) scale(0.100000,-0.100000)"
fill="#000000" stroke="none">
<path d="M2575 4825 c-360 -67 -672 -369 -726 -703 l-12 -73 -32 48 c-47 71
-164 176 -250 226 -42 25 -117 58 -168 75 -388 129 -808 -1 -966 -299 -28 -52
-35 -77 -39 -139 -6 -113 33 -189 129 -252 27 -17 47 -33 45 -35 -2 -2 -52
-15 -112 -30 -134 -31 -210 -70 -274 -140 -90 -99 -117 -224 -81 -377 52 -217
175 -333 363 -344 l78 -5 0 -1042 c0 -667 4 -1062 10 -1096 26 -135 114 -251
237 -311 l68 -33 725 -7 c399 -4 1051 -4 1450 0 l725 7 67 32 c94 44 160 109
206 202 l37 75 3 1105 c2 737 0 1118 -7 1141 -14 47 -73 115 -125 143 l-41 22
-1151 5 -1152 5 432 102 c1295 306 1567 373 1617 398 104 53 180 162 201 287
12 73 -5 181 -44 286 -30 80 -131 181 -212 211 -95 35 -155 37 -286 7 -63 -15
-123 -29 -133 -32 -16 -5 -15 0 7 33 94 143 67 300 -71 405 -133 100 -326 139
-518 103z m282 -325 l48 -22 -50 -45 c-74 -68 -198 -146 -363 -228 -164 -82
-321 -149 -329 -141 -10 10 8 75 39 137 45 93 169 213 270 262 140 69 283 83
385 37z m-1576 -396 c43 -13 104 -42 137 -64 57 -39 138 -117 129 -126 -13
-13 -387 -23 -528 -14 -131 8 -300 37 -316 54 -9 9 32 59 75 91 120 93 322
116 503 59z m984 -196 c9 -39 43 -184 76 -321 32 -137 59 -257 59 -266 0 -14
-64 -32 -367 -104 -201 -48 -368 -86 -369 -84 -4 4 -162 671 -160 674 4 4 711
171 728 172 12 1 20 -16 33 -71z m365 -2253 l0 -1285 -335 0 -335 0 0 1285 0
1285 335 0 335 0 0 -1285z"/>
<path d="M4281 4783 c-19 -20 -39 -67 -71 -170 l-44 -143 -153 -51 c-185 -61
-219 -92 -182 -162 17 -31 27 -36 188 -92 l144 -50 52 -154 c31 -90 60 -160
71 -168 28 -21 88 -16 110 8 10 11 42 87 69 167 l50 147 147 50 c87 29 157 59
170 72 27 28 29 84 4 112 -11 12 -82 41 -170 71 l-152 50 -49 151 c-54 162
-71 189 -127 189 -19 0 -39 -10 -57 -27z m112 -202 c37 -116 53 -154 73 -170
14 -11 89 -41 167 -67 78 -25 143 -47 145 -49 2 -2 -66 -26 -151 -54 -85 -29
-161 -60 -170 -69 -8 -9 -36 -83 -63 -164 -27 -82 -51 -148 -54 -148 -3 0 -27
64 -53 143 -26 78 -54 152 -62 165 -12 16 -56 34 -163 68 -81 26 -151 50 -155
54 -5 4 58 29 140 56 86 28 157 57 169 69 12 13 42 84 70 168 27 81 51 147 54
147 4 0 27 -67 53 -149z"/>
<path d="M4588 3600 c-9 -6 -34 -64 -57 -133 l-41 -123 -120 -38 c-105 -33
-122 -41 -135 -66 -35 -67 -9 -93 140 -144 l118 -41 37 -114 c38 -119 61 -151
105 -151 42 0 64 31 103 150 l39 115 117 41 c65 23 124 48 133 56 21 22 20 76
-3 99 -11 10 -71 36 -133 57 l-114 38 -34 110 c-19 60 -44 119 -56 132 -22 23
-69 29 -99 12z m138 -317 c10 -7 62 -27 116 -45 54 -18 94 -35 90 -39 -4 -4
-46 -19 -93 -33 -48 -14 -97 -34 -110 -45 -15 -12 -36 -56 -59 -127 l-36 -108
-32 100 c-17 54 -38 109 -47 121 -10 14 -53 34 -127 59 l-112 37 103 33 c56
17 113 41 125 53 13 12 36 65 56 127 l35 106 36 -113 c21 -63 44 -118 55 -126z"/>
</g>
</svg>
