<?xml version="1.0" standalone="no"?>
<!DOCTYPE svg PUBLIC "-//W3C//DTD SVG 20010904//EN"
 "http://www.w3.org/TR/2001/REC-SVG-20010904/DTD/svg10.dtd">
<svg version="1.0" xmlns="http://www.w3.org/2000/svg"
 width="512.000000pt" height="512.000000pt" viewBox="0 0 512.000000 512.000000"
 preserveAspectRatio="xMidYMid meet">

<g transform="translate(0.000000,512.000000) scale(0.100000,-0.100000)"
fill="#000000" stroke="none">
<path d="M1888 5040 c-85 -15 -150 -55 -388 -245 -129 -103 -274 -218 -322
-256 l-88 -69 0 120 0 120 48 0 c61 0 92 25 92 75 0 66 -16 72 -213 80 -96 4
-253 4 -347 0 -193 -8 -210 -15 -210 -78 0 -51 34 -77 98 -77 l52 0 0 -310 0
-310 -227 -181 c-265 -210 -287 -235 -287 -348 -1 -55 4 -74 26 -113 16 -25
45 -61 65 -78 45 -37 132 -64 179 -57 l34 6 0 -943 c0 -663 3 -952 11 -975 6
-17 19 -36 29 -41 12 -6 407 -10 1079 -10 l1061 0 0 -155 0 -155 -827 0 c-547
0 -841 -4 -866 -11 -49 -13 -105 -63 -128 -114 -15 -33 -19 -66 -19 -190 0
-171 10 -207 73 -262 47 -41 91 -53 205 -53 l92 0 0 -38 c0 -57 47 -141 98
-177 54 -37 140 -44 260 -21 46 8 88 13 95 11 7 -2 49 -6 95 -10 82 -6 82 -6
112 24 36 35 38 61 7 97 -21 24 -33 27 -123 36 -70 7 -135 6 -223 -3 l-124
-13 -23 28 c-13 15 -24 36 -24 47 0 19 13 19 659 19 l658 0 7 -66 c11 -106 65
-191 151 -237 l40 -22 1030 0 1030 0 40 22 c50 27 96 75 126 133 l24 45 3
1159 2 1160 -263 264 -264 264 -507 -1 -506 -2 0 93 0 93 58 0 c79 1 139 32
190 98 21 29 44 67 51 86 29 87 -2 193 -75 262 -53 50 -1526 1205 -1567 1229
-75 45 -176 64 -259 50z m147 -179 c48 -22 1580 -1223 1595 -1251 17 -32 11
-67 -16 -99 -20 -24 -34 -31 -63 -31 -34 0 -98 47 -742 551 -387 302 -721 559
-741 569 -54 29 -134 35 -199 16 -46 -13 -145 -87 -689 -512 -825 -645 -797
-624 -832 -624 -43 0 -68 17 -84 57 -14 31 -13 38 3 69 13 24 239 207 795 643
427 335 789 613 805 619 45 17 124 13 168 -7z m-1105 -334 l0 -184 -42 -33
c-24 -19 -62 -49 -85 -68 l-43 -34 0 251 0 251 85 0 85 0 0 -183z m1045 -57
c15 -6 328 -247 696 -537 l670 -526 -3 -136 -3 -136 -280 -5 c-317 -6 -324 -7
-399 -90 -75 -83 -71 -34 -74 -827 l-3 -713 -1009 0 -1010 0 0 81 c0 75 2 83
25 101 14 11 25 25 25 32 0 22 40 66 60 66 11 0 30 -19 49 -49 16 -27 39 -52
50 -56 30 -9 160 29 250 75 94 47 126 81 116 125 -4 16 -7 48 -8 70 l-2 40 40
-2 c22 -1 55 -5 73 -8 27 -6 38 -3 59 16 42 40 111 195 136 308 9 37 -9 69
-51 90 -77 39 -79 68 -6 107 60 31 68 56 45 147 -11 41 -34 103 -52 138 -66
132 -92 151 -169 123 -26 -9 -55 -14 -65 -10 -18 6 -18 12 1 119 8 46 -6 64
-81 107 -61 35 -222 90 -261 90 -40 0 -53 -11 -79 -61 -26 -54 -54 -61 -84
-23 -11 15 -21 33 -21 40 0 7 -11 21 -25 30 -24 16 -25 20 -25 118 l1 101 52
40 c29 22 322 253 652 514 535 424 651 511 676 511 4 0 20 -5 34 -10z m-1056
-1463 l54 -22 1 -60 c3 -118 74 -188 191 -190 l59 -1 25 -61 24 -61 -37 -33
c-61 -53 -80 -108 -64 -185 8 -35 22 -58 55 -91 48 -48 48 -50 11 -130 -18
-38 -23 -42 -48 -36 -49 9 -128 -16 -165 -52 -36 -37 -61 -116 -52 -165 6 -27
3 -30 -58 -55 l-63 -27 -44 45 c-67 70 -138 82 -215 35 l-33 -20 0 531 c0 292
3 531 8 531 4 -1 18 -7 32 -15 34 -19 114 -19 157 2 19 9 47 31 61 50 15 18
32 33 37 33 6 0 34 -11 64 -23z m3463 -184 c4 -179 15 -215 85 -272 53 -44 88
-51 256 -51 l147 0 0 -1099 0 -1099 -26 -31 c-14 -17 -42 -35 -62 -41 -51 -14
-1903 -14 -1954 0 -57 16 -88 60 -88 126 l0 54 245 0 244 0 33 28 c18 16 114
75 213 131 99 57 185 111 192 120 15 19 17 66 3 91 -5 10 -105 73 -221 140
l-212 122 -248 -1 -249 -2 0 926 c0 854 1 929 17 956 36 61 4 59 849 59 l772
0 4 -157z m281 -161 c-73 -3 -79 -1 -100 23 -20 22 -23 38 -23 103 l0 77 100
-100 100 -100 -77 -3z m-3555 -1939 l3 -153 -95 0 c-124 0 -126 3 -126 155 0
153 3 157 123 153 l92 -3 3 -152z m2012 2 l0 -155 -925 0 -925 0 0 155 0 155
925 0 925 0 0 -155z m294 27 l38 -24 -56 -34 c-32 -19 -70 -41 -87 -49 l-29
-16 0 102 0 101 48 -28 c26 -15 64 -38 86 -52z"/>
<path d="M1832 4075 c-68 -15 -166 -56 -195 -82 -13 -13 -17 -29 -16 -65 2
-26 0 -50 -3 -54 -4 -3 -20 2 -37 10 -16 9 -40 16 -52 16 -52 0 -173 -181
-186 -277 -6 -43 -5 -44 61 -97 l29 -23 -41 -16 c-60 -24 -76 -54 -68 -124 9
-76 48 -186 82 -230 26 -34 29 -35 75 -30 27 3 51 3 53 -2 3 -4 -2 -20 -10
-35 -26 -51 -18 -80 33 -126 50 -43 168 -105 221 -116 38 -8 75 13 94 53 18
37 29 34 52 -15 26 -56 56 -67 141 -53 79 14 157 47 204 86 31 27 33 31 27 76
-4 26 -3 50 2 53 5 3 23 -4 40 -15 51 -30 80 -25 124 24 53 57 118 191 118
244 0 41 -11 56 -53 78 -34 17 -30 32 13 49 55 22 71 60 59 138 -16 101 -72
229 -106 242 -9 4 -36 4 -60 0 -48 -7 -50 -4 -28 50 9 20 13 47 9 61 -11 43
-153 137 -247 163 -52 15 -90 0 -110 -43 -9 -19 -21 -35 -27 -35 -6 0 -19 19
-29 43 -18 42 -53 68 -89 66 -9 0 -45 -7 -80 -14z m128 -245 c44 -18 113 -7
160 25 40 28 41 28 73 10 32 -17 33 -19 33 -80 -1 -53 3 -67 27 -98 33 -44 70
-65 122 -70 35 -4 39 -8 50 -45 12 -39 11 -41 -17 -62 -81 -60 -91 -172 -21
-252 14 -15 13 -21 -4 -50 -18 -31 -22 -33 -80 -33 -51 -1 -67 -5 -98 -29 -40
-31 -74 -94 -75 -137 0 -22 -6 -28 -39 -36 -37 -10 -40 -9 -61 19 -55 75 -143
89 -225 37 l-49 -31 -35 21 c-20 11 -34 26 -32 33 2 7 4 32 4 54 1 79 -62 147
-148 159 -40 6 -44 10 -53 45 -9 35 -7 39 25 65 70 55 81 147 28 227 -27 41
-27 42 -10 74 16 30 20 32 74 31 96 -2 160 52 171 142 5 43 7 46 45 57 39 11
41 10 72 -26 18 -21 46 -43 63 -50z"/>
<path d="M3395 2758 c-11 -5 -75 -65 -142 -131 l-123 -121 -49 48 c-39 38 -57
49 -82 49 -40 0 -69 -33 -69 -77 0 -27 14 -46 89 -119 69 -68 95 -87 117 -87
23 0 58 30 197 168 149 149 168 172 169 202 1 25 -6 39 -26 57 -30 25 -50 28
-81 11z"/>
<path d="M3719 2601 c-29 -23 -31 -81 -4 -111 17 -19 29 -20 237 -20 205 0
219 1 238 20 28 28 26 81 -3 108 -22 21 -31 22 -234 22 -191 0 -213 -2 -234
-19z"/>
<path d="M3390 2204 c-14 -9 -78 -69 -142 -133 l-118 -115 -48 47 c-37 36 -55
47 -80 47 -42 0 -72 -30 -72 -73 0 -29 12 -45 89 -120 69 -68 95 -87 117 -87
23 0 58 30 198 169 150 150 169 173 169 202 0 23 -8 39 -27 56 -32 27 -53 29
-86 7z"/>
<path d="M3730 2067 c-35 -18 -48 -69 -26 -102 9 -14 29 -30 43 -36 16 -6 190
-9 455 -7 l430 3 25 29 c19 23 23 36 19 60 -13 63 6 61 -479 64 -341 1 -448
-1 -467 -11z"/>
<path d="M3275 1540 c-72 -71 -135 -130 -141 -130 -5 0 -30 20 -54 45 -35 35
-51 45 -77 45 -43 0 -73 -30 -73 -74 0 -29 11 -44 85 -115 126 -120 117 -122
324 83 145 145 164 168 164 197 0 37 -40 79 -75 79 -14 0 -68 -46 -153 -130z"/>
<path d="M3721 1473 c-34 -29 -37 -74 -8 -109 l25 -29 447 0 447 0 25 29 c29
35 26 80 -8 109 -20 16 -57 17 -464 17 -407 0 -444 -1 -464 -17z"/>
</g>
</svg>
