<?xml version="1.0" standalone="no"?>
<!DOCTYPE svg PUBLIC "-//W3C//DTD SVG 20010904//EN"
 "http://www.w3.org/TR/2001/REC-SVG-20010904/DTD/svg10.dtd">
<svg version="1.0" xmlns="http://www.w3.org/2000/svg"
 width="512.000000pt" height="512.000000pt" viewBox="0 0 512.000000 512.000000"
 preserveAspectRatio="xMidYMid meet">

<g transform="translate(0.000000,512.000000) scale(0.100000,-0.100000)"
fill="#000000" stroke="none">
<path d="M1850 5026 c-76 -20 -123 -53 -442 -304 -168 -133 -309 -242 -312
-242 -3 0 -6 52 -6 115 l0 115 50 0 c37 0 55 5 70 20 27 27 27 83 0 110 -19
19 -33 20 -365 20 -332 0 -346 -1 -365 -20 -28 -28 -26 -81 2 -108 16 -14 39
-22 73 -24 l50 -3 0 -305 0 -304 -215 -168 c-118 -92 -227 -181 -242 -197 -36
-41 -62 -131 -54 -189 16 -121 127 -212 257 -212 l49 0 2 -959 c3 -927 4 -960
22 -980 l19 -21 1069 0 1068 0 0 -155 0 -154 -842 -3 c-841 -3 -843 -3 -883
-25 -99 -53 -115 -96 -115 -303 0 -181 8 -210 74 -268 46 -40 91 -52 204 -52
l92 0 0 -33 c0 -87 48 -165 127 -203 52 -26 58 -27 151 -18 53 4 156 7 227 6
127 -3 131 -3 153 21 31 33 27 83 -8 108 -36 26 -206 39 -343 26 -101 -9 -110
-8 -128 9 -10 11 -21 34 -25 52 l-7 32 660 0 660 0 6 -64 c3 -36 13 -80 21
-99 22 -53 85 -117 141 -143 l50 -24 1010 0 1010 0 50 24 c28 12 67 42 88 66
78 85 72 -20 75 1279 l2 1165 -247 249 c-137 136 -256 253 -266 258 -12 7
-204 10 -523 9 l-504 -1 0 95 0 94 39 -5 c68 -9 147 21 205 80 61 61 82 119
73 198 -13 104 4 90 -839 750 -431 337 -804 626 -830 642 -82 51 -196 68 -288
43z m-920 -495 l0 -179 -80 -66 c-43 -36 -82 -66 -85 -66 -3 0 -5 110 -5 245
l0 245 85 0 85 0 0 -179z m1081 -90 c24 -16 332 -254 684 -528 l640 -499 0
-134 0 -135 -275 -5 c-261 -5 -277 -6 -317 -27 -56 -30 -111 -88 -137 -143
-21 -44 -21 -56 -24 -757 l-3 -713 -1009 0 -1010 0 0 89 c0 81 2 90 20 96 11
4 29 23 39 44 39 76 68 78 107 5 33 -63 56 -69 160 -38 104 30 216 86 245 123
15 19 19 34 14 56 -25 118 -16 135 56 110 55 -20 71 -19 101 5 53 41 138 240
138 322 0 40 -10 53 -70 92 -20 12 -35 30 -35 41 0 11 15 29 35 41 58 37 70
52 70 87 0 57 -55 208 -105 286 -34 54 -65 66 -121 47 -59 -20 -84 -12 -84 27
0 17 5 45 11 62 25 68 -37 121 -211 182 -142 49 -169 45 -212 -36 -31 -57 -62
-51 -99 20 -10 21 -28 40 -39 44 -18 6 -20 15 -20 108 l0 102 652 510 c358
281 665 518 682 528 43 24 65 22 117 -12z m-1085 -1415 c48 -22 50 -25 46 -58
-9 -78 39 -167 105 -194 18 -8 57 -14 87 -14 61 0 68 -7 95 -91 11 -35 10 -37
-33 -80 -83 -83 -83 -184 1 -266 l44 -42 -23 -58 -23 -58 -65 -5 c-72 -6 -118
-26 -149 -66 -26 -33 -43 -95 -39 -140 3 -42 -4 -49 -71 -72 l-53 -18 -41 42
c-67 67 -129 77 -229 39 -16 -6 -18 0 -18 66 l0 74 103 0 c90 0 109 3 159 27
170 79 253 261 199 434 -40 130 -133 218 -264 250 -54 14 -81 15 -133 8 l-64
-10 0 93 c0 51 3 93 8 93 4 -1 18 -7 32 -15 60 -34 178 -4 221 56 25 35 39 36
105 5z m3456 -203 c4 -173 13 -207 75 -265 52 -50 88 -58 258 -58 l155 0 0
-1094 0 -1093 -21 -27 c-46 -59 9 -56 -1044 -56 -1053 0 -998 -3 -1044 56 -15
19 -21 41 -21 75 l0 48 248 3 248 3 200 114 c109 63 209 123 222 134 30 28 30
86 0 114 -13 12 -111 72 -218 135 l-195 113 -258 3 -257 3 2 939 3 938 25 27
c14 15 34 31 45 35 11 5 369 9 797 9 l776 1 4 -157z m-3272 -2098 l0 -155 -92
0 c-128 0 -128 0 -128 156 0 156 -1 154 126 154 l94 0 0 -155z m2273 45 c31
-17 57 -35 57 -40 0 -6 -81 -57 -152 -97 -5 -2 -8 42 -8 98 l0 101 23 -14 c12
-8 48 -30 80 -48z"/>
<path d="M1815 4071 c-93 -23 -180 -64 -195 -91 -7 -14 -9 -39 -5 -66 7 -49
-1 -54 -45 -29 -42 24 -70 18 -109 -23 -38 -40 -100 -150 -121 -215 -16 -49
-2 -84 46 -115 39 -25 38 -37 -6 -47 -16 -4 -39 -19 -51 -33 -18 -23 -20 -35
-15 -82 8 -70 27 -133 60 -197 29 -58 64 -78 120 -68 41 8 45 -2 21 -45 -24
-43 -18 -70 26 -112 41 -39 142 -95 212 -118 49 -15 90 0 107 40 7 16 18 31
26 34 14 5 18 -2 39 -61 2 -6 16 -20 30 -29 24 -15 35 -16 103 -5 89 13 214
68 232 101 8 14 9 39 5 68 -7 50 -8 49 63 21 28 -12 37 -11 60 1 34 19 110
132 141 210 28 71 21 102 -35 138 -28 18 -33 26 -24 37 6 8 24 17 40 20 31 7
54 29 64 61 9 29 -20 164 -48 228 -33 74 -57 91 -122 90 -58 -2 -63 4 -39 46
25 44 18 70 -30 116 -50 46 -169 109 -228 120 -36 6 -40 4 -82 -42 l-44 -48
-11 28 c-5 15 -10 32 -10 37 0 5 -9 18 -20 29 -24 24 -60 25 -155 1z m97 -195
c68 -65 146 -70 217 -15 29 23 45 24 76 3 22 -14 25 -23 25 -78 0 -98 51 -157
146 -172 40 -6 43 -8 49 -45 6 -35 4 -41 -24 -65 -77 -65 -80 -153 -8 -232
l22 -23 -20 -36 c-20 -35 -21 -35 -87 -37 -50 -1 -73 -6 -94 -22 -44 -32 -66
-68 -71 -117 -5 -43 -7 -46 -45 -55 -38 -10 -41 -9 -70 24 -17 19 -44 42 -59
50 -56 29 -140 13 -195 -37 -20 -19 -21 -19 -54 3 -32 22 -34 26 -31 75 5 94
-54 167 -144 175 -37 4 -40 7 -51 43 -11 39 -10 41 26 72 21 18 43 46 50 63
19 47 8 123 -25 166 -27 35 -27 37 -11 70 15 33 17 34 79 34 50 0 71 5 97 23
42 28 68 70 73 122 3 31 9 41 28 46 45 13 55 9 101 -35z"/>
<path d="M1884 3746 c-94 -23 -176 -93 -217 -185 -29 -64 -29 -169 0 -233 30
-67 104 -141 166 -169 69 -30 172 -31 239 -1 66 29 141 102 169 165 34 77 32
184 -3 253 -68 130 -221 204 -354 170z"/>
<path d="M3410 2773 c-8 -3 -72 -62 -142 -131 l-128 -126 -48 47 c-44 43 -53
48 -87 45 -49 -4 -81 -42 -71 -85 4 -16 43 -63 90 -110 120 -121 110 -124 318
85 145 145 168 172 168 199 0 52 -54 93 -100 76z"/>
<path d="M3719 2601 c-17 -13 -23 -29 -23 -56 0 -27 6 -43 23 -56 21 -17 43
-19 237 -19 201 0 215 1 234 20 12 12 20 33 20 55 0 22 -8 43 -20 55 -19 19
-33 20 -234 20 -194 0 -216 -2 -237 -19z"/>
<path d="M3405 2219 c-11 -6 -75 -66 -142 -132 l-122 -121 -50 47 c-35 33 -59
47 -78 47 -61 0 -96 -55 -69 -108 8 -15 48 -60 89 -99 112 -109 104 -111 310
95 145 145 167 171 167 198 0 57 -59 98 -105 73z"/>
<path d="M3723 2065 c-47 -33 -36 -115 19 -134 42 -15 844 -15 886 0 55 19 66
101 19 134 -32 22 -892 22 -924 0z"/>
<path d="M3410 1668 c-14 -5 -80 -64 -147 -130 l-122 -122 -50 47 c-56 52 -92
60 -132 28 -17 -13 -23 -29 -23 -56 0 -33 9 -45 86 -121 124 -122 112 -125
321 84 174 174 185 191 157 242 -13 25 -59 39 -90 28z"/>
<path d="M3721 1473 c-34 -29 -37 -74 -8 -109 l25 -29 424 -3 c278 -2 435 1
459 7 42 13 64 52 53 95 -14 57 -9 56 -490 56 -406 0 -443 -1 -463 -17z"/>
</g>
</svg>
