<?xml version="1.0" standalone="no"?>
<!DOCTYPE svg PUBLIC "-//W3C//DTD SVG 20010904//EN"
 "http://www.w3.org/TR/2001/REC-SVG-20010904/DTD/svg10.dtd">
<svg version="1.0" xmlns="http://www.w3.org/2000/svg"
 width="512.000000pt" height="512.000000pt" viewBox="0 0 512.000000 512.000000"
 preserveAspectRatio="xMidYMid meet">

<g transform="translate(0.000000,512.000000) scale(0.100000,-0.100000)"
fill="#000000" stroke="none">
<path d="M145 5105 c-51 -18 -120 -91 -134 -141 -6 -23 -11 -137 -11 -276 l0
-238 23 0 c12 0 46 -3 75 -6 l52 -7 0 242 0 242 25 24 24 25 2361 0 2361 0 24
-25 25 -24 0 -551 0 -551 -25 -24 -24 -25 -2361 0 -2361 0 -24 25 -25 24 0
241 0 240 -75 0 -75 0 0 -242 c0 -139 5 -259 11 -281 12 -44 56 -97 107 -129
35 -22 50 -23 255 -28 l218 -5 -296 -375 -296 -374 3 -266 3 -265 37 -78 c26
-53 55 -96 92 -132 60 -58 170 -119 235 -130 l41 -7 0 -919 0 -919 -205 0
-205 0 0 -75 0 -75 1910 0 1910 0 0 75 0 75 -140 0 -140 0 0 150 0 150 -190 0
-190 0 0 439 c0 251 -4 461 -10 492 -42 226 -218 417 -437 473 -76 20 -230 20
-303 1 -222 -59 -398 -247 -439 -469 -7 -38 -11 -223 -11 -498 l0 -438 -190 0
-190 0 0 -150 0 -150 -510 0 -510 0 0 300 0 300 565 0 565 0 0 525 0 525 -565
0 -566 0 3 91 3 92 54 14 c81 20 167 71 228 133 l56 56 58 -58 c195 -196 520
-195 713 1 l59 60 41 -46 c82 -93 203 -150 341 -160 144 -10 277 39 383 142
l62 61 63 -61 c202 -198 535 -190 720 15 l44 49 59 -60 c90 -92 225 -149 353
-149 132 0 269 56 360 148 l58 58 55 -56 c63 -63 137 -107 223 -131 l60 -16 3
-91 3 -92 -566 0 -565 0 0 -525 0 -525 565 0 565 0 0 -300 0 -300 -145 0 -145
0 0 -75 0 -75 425 0 425 0 0 75 0 75 -205 0 -205 0 0 919 0 919 41 7 c112 19
261 131 314 235 49 97 55 136 55 396 l0 242 -296 373 -295 374 213 5 c182 4
219 8 251 24 48 24 101 85 115 135 17 56 17 1128 0 1185 -17 55 -91 131 -143
145 -28 8 -724 11 -2410 11 -2018 -1 -2376 -3 -2410 -15z m957 -1612 c-30 -71
-99 -227 -152 -348 l-97 -220 -213 -3 -213 -2 35 42 c19 24 143 181 277 351
l243 307 88 0 89 0 -57 -127z m688 121 c0 -14 -120 -688 -123 -691 -2 -2 -148
-2 -324 -1 l-321 3 134 305 c73 168 143 324 154 348 l20 42 230 0 c126 0 230
-3 230 -6z m690 -344 l0 -350 -325 0 c-229 0 -325 3 -325 11 0 12 107 628 115
667 l5 22 265 0 265 0 0 -350z m754 13 c32 -186 61 -344 63 -350 4 -10 -65
-13 -326 -13 l-331 0 0 350 0 350 268 0 268 0 58 -337z m565 310 c43 -93 291
-662 291 -667 0 -3 -143 -6 -317 -6 l-318 0 -59 338 c-32 185 -61 343 -63 350
-4 9 45 12 224 12 l230 0 12 -27z m806 -315 c149 -188 272 -346 273 -350 2 -4
-135 -8 -305 -8 l-309 0 -150 341 c-82 187 -150 345 -152 350 -2 5 76 9 185 9
l188 -1 270 -341z m-2950 -708 c0 -193 0 -196 -28 -252 -33 -68 -90 -121 -166
-156 -47 -23 -70 -27 -146 -27 -76 0 -99 4 -146 27 -66 30 -128 89 -161 150
-21 40 -23 57 -26 251 l-3 207 338 -2 338 -3 0 -195z m1653 -7 c-3 -177 -6
-213 -21 -244 -33 -66 -85 -117 -155 -151 -60 -30 -75 -33 -157 -33 -76 0 -99
4 -146 27 -74 34 -132 87 -163 151 -25 50 -26 56 -26 254 l0 203 336 0 335 0
-3 -207z m1662 24 c0 -205 -8 -250 -59 -318 -147 -200 -472 -175 -589 46 -26
48 -27 56 -30 253 l-4 202 341 0 341 0 0 -183z m-4150 -16 c0 -116 -4 -201
-12 -222 -40 -119 -163 -205 -300 -211 -50 -2 -52 -1 -103 54 -87 93 -98 135
-103 371 l-4 197 261 0 261 0 0 -189z m1660 6 c0 -215 -8 -251 -77 -327 -72
-80 -147 -112 -263 -111 -127 0 -242 68 -298 175 -26 50 -27 56 -30 249 l-4
197 336 0 336 0 0 -183z m1658 -9 c-3 -188 -4 -195 -31 -250 -120 -244 -498
-240 -613 6 -22 48 -24 62 -24 244 l0 192 336 0 336 0 -4 -192z m-1658 -1488
l0 -630 -185 0 -185 0 0 408 c0 224 5 439 10 477 23 160 131 296 285 358 83
33 75 95 75 -613z m268 600 c125 -59 223 -184 251 -318 7 -34 11 -208 11 -482
l0 -430 -185 0 -185 0 0 630 0 630 23 0 c12 0 50 -13 85 -30z m-1208 -405 l0
-375 -485 0 -485 0 0 375 0 375 485 0 485 0 0 -375z m3010 0 l0 -375 -480 0
-480 0 0 375 0 375 480 0 480 0 0 -375z m-1170 -1050 l0 -75 -750 0 -750 0 0
75 0 75 750 0 750 0 0 -75z"/>
<path d="M330 4370 l0 -280 75 0 75 0 0 57 0 57 63 -61 62 -61 55 48 55 49
-50 51 -49 50 36 37 c87 90 88 204 2 285 -44 41 -75 48 -205 48 l-119 0 0
-280z m234 108 c17 -27 -5 -52 -48 -56 l-36 -3 0 41 0 41 36 -3 c22 -2 42 -10
48 -20z"/>
<path d="M810 4370 l0 -280 155 0 155 0 0 75 0 75 -80 0 c-79 0 -80 0 -80 25
0 23 3 25 50 25 l50 0 0 80 0 80 -50 0 c-47 0 -50 2 -50 25 0 25 1 25 80 25
l80 0 0 75 0 75 -155 0 -155 0 0 -280z"/>
<path d="M1318 4630 c-76 -41 -107 -141 -66 -220 20 -40 33 -50 111 -88 87
-43 103 -63 68 -82 -24 -13 -56 -1 -100 35 -18 15 -36 24 -40 19 -4 -5 -25
-31 -47 -58 l-39 -49 44 -38 c40 -35 118 -69 160 -69 38 0 94 24 128 53 63 56
80 134 44 205 -25 49 -42 63 -129 106 -70 35 -85 56 -39 56 12 0 40 -12 60
-26 21 -14 40 -24 41 -22 37 50 74 124 66 133 -5 6 -34 24 -64 38 -67 33 -143
36 -198 7z"/>
<path d="M1652 4578 l3 -73 53 -3 52 -3 0 -200 0 -199 75 0 75 0 0 200 0 200
50 0 50 0 0 75 0 75 -180 0 -181 0 3 -72z"/>
<path d="M2186 4633 c-3 -10 -37 -125 -76 -257 -39 -131 -69 -240 -67 -242 10
-10 133 -42 138 -36 4 4 21 58 40 120 18 61 34 110 36 108 3 -2 19 -54 38
-116 19 -62 35 -114 37 -116 9 -8 138 38 138 49 0 7 -33 122 -73 257 l-73 245
-66 3 c-57 2 -67 0 -72 -15z"/>
<path d="M3010 4370 l0 -280 75 0 75 0 0 52 0 52 58 -56 57 -57 54 48 55 48
-47 54 -47 53 34 28 c18 15 41 43 50 62 33 69 13 180 -40 227 -47 41 -80 49
-204 49 l-120 0 0 -280z m218 121 c8 -5 12 -21 10 -37 -3 -26 -7 -29 -40 -32
l-38 -3 0 40 c0 38 2 41 28 41 15 0 33 -4 40 -9z"/>
<path d="M3561 4553 c-51 -168 -121 -406 -121 -414 0 -4 25 -15 55 -23 30 -9
61 -19 69 -22 11 -4 22 18 46 98 17 57 34 111 38 122 6 14 17 -12 42 -95 18
-63 36 -117 39 -121 7 -8 141 29 141 39 0 7 -113 392 -136 466 l-16 47 -63 0
-64 0 -30 -97z"/>
<path d="M3950 4370 l0 -280 75 0 74 0 3 106 3 107 59 -107 60 -106 68 0 68 0
0 280 0 280 -75 0 -74 0 -3 -107 -3 -108 -60 107 -60 108 -67 0 -68 0 0 -280z"/>
<path d="M4460 4575 l0 -75 50 0 50 0 2 -197 3 -198 75 0 75 0 3 198 2 197 50
0 50 0 0 75 0 75 -180 0 -180 0 0 -75z"/>
<path d="M2530 4443 c0 -171 3 -203 19 -238 35 -76 95 -115 176 -115 81 0 141
39 176 115 16 35 19 67 19 238 l0 197 -75 0 -75 0 0 -188 c0 -197 -3 -212 -45
-212 -42 0 -45 15 -45 212 l0 188 -75 0 -75 0 0 -197z"/>
<path d="M3970 75 l0 -75 75 0 75 0 0 75 0 75 -75 0 -75 0 0 -75z"/>
</g>
</svg>
