<?xml version="1.0" standalone="no"?>
<!DOCTYPE svg PUBLIC "-//W3C//DTD SVG 20010904//EN"
 "http://www.w3.org/TR/2001/REC-SVG-20010904/DTD/svg10.dtd">
<svg version="1.0" xmlns="http://www.w3.org/2000/svg"
 width="512.000000pt" height="512.000000pt" viewBox="0 0 512.000000 512.000000"
 preserveAspectRatio="xMidYMid meet">

<g transform="translate(0.000000,512.000000) scale(0.100000,-0.100000)"
fill="#000000" stroke="none">
<path d="M2280 5113 c-111 -5 -379 -33 -510 -53 -515 -79 -744 -167 -1026
-396 -233 -189 -429 -442 -536 -694 -74 -172 -150 -555 -190 -955 -19 -194
-16 -758 6 -960 47 -441 119 -772 210 -962 178 -369 490 -681 858 -858 191
-92 512 -162 963 -211 201 -22 764 -25 960 -6 367 37 760 111 918 173 319 125
650 404 852 717 139 216 209 435 275 862 43 280 54 432 54 790 0 358 -11 510
-54 790 -66 427 -136 646 -275 862 -164 254 -431 504 -685 639 -109 58 -213
98 -342 129 -455 110 -971 157 -1478 133z m-1095 -868 c23 -5 224 -200 808
-783 428 -427 788 -790 799 -805 29 -40 39 -94 27 -142 -9 -35 -114 -144 -802
-833 -436 -435 -806 -799 -823 -807 -72 -34 -169 -3 -205 65 -23 41 -25 111
-5 148 8 15 339 351 735 747 l721 720 -720 720 c-502 503 -724 731 -735 757
-39 96 9 195 106 218 19 4 41 6 49 5 8 -2 29 -6 45 -10z m1322 5 c32 -12 1606
-1580 1629 -1622 18 -35 18 -102 -1 -142 -8 -17 -372 -387 -807 -823 -856
-854 -824 -825 -912 -809 -41 8 -90 46 -111 87 -17 32 -20 96 -6 131 5 13 338
351 740 753 l731 730 -729 730 c-789 789 -762 759 -742 846 12 52 37 85 84
108 47 23 82 26 124 11z"/>
</g>
</svg>
